<?xml version="1.0" standalone="no"?>
<!DOCTYPE svg PUBLIC "-//W3C//DTD SVG 20010904//EN"
 "http://www.w3.org/TR/2001/REC-SVG-20010904/DTD/svg10.dtd">
<svg version="1.0" xmlns="http://www.w3.org/2000/svg"
 width="408.000000pt" height="408.000000pt" viewBox="0 0 408.000000 408.000000"
 preserveAspectRatio="xMidYMid meet">
<metadata>
Created by potrace 1.11, written by Peter Selinger 2001-2013
</metadata>
<g transform="translate(0.000000,408.000000) scale(0.100000,-0.100000)"
fill="#000000" stroke="none">
<path d="M1917 3974 c-1 -1 -43 -4 -94 -8 -217 -15 -454 -83 -690 -198 l-122
-60 28 -31 29 -30 134 66 c206 102 436 172 633 194 88 10 360 9 440 -1 481
-60 915 -296 1228 -666 51 -60 180 -253 208 -312 13 -27 27 -48 32 -48 5 0 -9
33 -31 74 -214 396 -560 706 -978 876 -94 39 -259 90 -334 104 -151 29 -229
38 -367 40 -62 1 -114 1 -116 0z"/>
<path d="M824 3683 c-15 -15 -16 -33 -11 -158 4 -77 9 -156 12 -175 5 -31 10
-61 30 -177 12 -75 66 -265 100 -353 136 -356 326 -550 755 -769 183 -93 210
-111 210 -138 0 -10 -27 -56 -60 -103 -128 -184 -221 -344 -274 -475 -15 -38
-32 -79 -36 -90 -5 -11 -14 -38 -21 -60 -18 -61 -42 -104 -110 -196 -50 -68
-253 -309 -319 -380 -8 -9 -75 -80 -149 -158 -157 -167 -197 -215 -207 -255
-7 -28 -6 -29 24 -23 80 16 287 183 597 482 50 48 102 93 116 101 31 16 31 17
-2 -95 -23 -75 -22 -71 -6 -71 8 0 38 30 68 67 81 101 244 261 334 328 126 95
313 183 423 201 134 22 324 133 437 255 101 110 156 208 214 384 24 72 61 175
83 230 149 379 369 558 828 676 136 35 163 46 155 60 -6 9 -62 7 -135 -6 -14
-3 -41 -7 -60 -10 -74 -12 -189 -38 -275 -61 -49 -13 -110 -29 -134 -36 l-43
-11 -46 47 c-58 60 -100 78 -182 79 -116 2 -265 -66 -359 -163 l-40 -41 -24
38 c-47 76 -86 180 -171 453 -40 128 -232 530 -253 530 -19 0 -40 -39 -73
-136 -54 -157 -117 -463 -125 -598 -4 -75 27 -178 65 -216 92 -94 76 -88 -60
21 -192 154 -312 244 -460 344 -259 176 -372 269 -627 517 -89 87 -164 158
-167 158 -2 0 -12 -8 -22 -17z"/>
<path d="M604 3388 c-172 -178 -301 -373 -399 -603 -59 -139 -112 -318 -129
-440 -3 -22 -10 -69 -15 -105 -10 -65 -8 -413 2 -460 3 -14 8 -43 12 -65 45
-309 206 -665 418 -930 56 -69 234 -244 286 -279 l42 -29 29 30 30 30 -63 54
c-229 198 -382 409 -520 719 -35 79 -97 294 -111 385 -22 146 -26 190 -27 325
0 143 5 210 27 330 65 365 236 708 484 969 36 39 41 48 36 80 -3 20 -5 44 -6
54 0 9 -4 17 -8 17 -5 0 -44 -37 -88 -82z"/>
<path d="M3856 2588 c13 -43 23 -68 28 -68 3 0 -2 20 -11 45 -15 45 -31 65
-17 23z"/>
<path d="M3881 2505 c0 -5 6 -32 13 -60 8 -27 14 -41 14 -30 0 21 -25 107 -27
90z"/>
<path d="M3911 2355 c1 -19 18 -51 18 -35 0 8 -4 22 -9 30 -5 8 -9 11 -9 5z"/>
<path d="M3931 2244 c0 -11 3 -14 6 -6 3 7 2 16 -1 19 -3 4 -6 -2 -5 -13z"/>
<path d="M3912 1675 c0 -16 2 -22 5 -12 2 9 2 23 0 30 -3 6 -5 -1 -5 -18z"/>
<path d="M3901 1624 c0 -11 3 -14 6 -6 3 7 2 16 -1 19 -3 4 -6 -2 -5 -13z"/>
<path d="M3891 1584 c0 -11 3 -14 6 -6 3 7 2 16 -1 19 -3 4 -6 -2 -5 -13z"/>
<path d="M3865 1493 c-63 -230 -212 -510 -374 -698 -202 -234 -462 -418 -755
-534 -86 -35 -312 -96 -391 -106 -27 -4 -66 -9 -85 -12 -85 -11 -342 -10 -440
3 -185 24 -403 87 -560 162 l-65 31 -25 -22 c-14 -12 -29 -25 -34 -29 -13 -10
103 -61 247 -110 567 -190 1180 -111 1688 220 195 127 391 315 514 493 24 35
49 69 55 76 5 7 10 15 10 19 0 4 6 15 14 23 21 24 122 228 156 317 34 90 74
224 67 230 -2 2 -12 -26 -22 -63z"/>
</g>
</svg>
